<svg xmlns="http://www.w3.org/2000/svg" xmlns:xlink="http://www.w3.org/1999/xlink" id="Layer_1" x="0" y="0" version="1.1" viewBox="0 0 138.7 146.9" xml:space="preserve" style="enable-background:new 0 0 138.7 146.9"><style type="text/css">.st0{opacity:.6}.st1,.st2{fill:#fff}.st2{stroke:#939598;stroke-width:10;stroke-miterlimit:10}</style><title>Asset 3</title><g id="Layer_2_1_" class="st0"><g id="Layer_1-2"><g><path d="M44.9,31.2H13.6V0h31.2V31.2z M21.7,23.2h15.2V8H21.7V23.2z" class="st1"/></g><g><path d="M83.8,15.6L83.8,15.6z" class="st2"/></g><g><path d="M29.3,44.5L29.3,44.5z" class="st2"/></g><g><rect width="8" height="59.3" x="65.3" y="29.3" class="st1" transform="matrix(0.7322 -0.681 0.681 0.7322 -21.6078 62.9769)"/></g><g><rect width="59.3" height="8" x="39.7" y="55" class="st1" transform="matrix(0.6811 -0.7322 0.7322 0.6811 -21.0835 69.5433)"/></g><g><path d="M44.9,118H13.6V86.7h31.2V118z M21.7,109.9h15.2V94.8H21.7V109.9z" class="st1"/></g><g><path d="M125.1,31.2H93.7V0H125L125.1,31.2L125.1,31.2z M101.8,23.2h15.2V8h-15.2C101.8,8,101.8,23.2,101.8,23.2z" class="st1"/></g><g><path d="M125.1,118H93.7V86.7H125L125.1,118L125.1,118z M101.8,109.9h15.2V94.8h-15.2 C101.8,94.8,101.8,109.9,101.8,109.9z" class="st1"/></g><g><path d="M109.4,44.5L109.4,44.5z" class="st2"/></g><g><path d="M83.8,102.3L83.8,102.3z" class="st2"/></g></g></g></svg>