<svg xmlns="http://www.w3.org/2000/svg" id="Layer_1" data-name="Layer 1" viewBox="0 0 100 100"><defs><style>.cls-1{opacity:.6}.cls-2{fill:#fff}</style></defs><title>sp-white</title><g class="cls-1"><path d="M49.2,53.8H61.5v-7H49.2l-4.1-7,6.3-10.9-6.1-3.5L39,36.4H31l0.2-.1L24.7,25l-6.1,3.5,6.5,11.2h0l-3.7,6.6H8.1v7H20.8l3.9,6.8H24.6L18.1,71.2l6.1,3.5,6.1-10.6h8.2L44.9,75,51,71.5,45,61Zm-22-3.5,4-6.9h8l4,6.9-4,6.9h-8Z" class="cls-2"/><rect width="7" height="18.7" x="31.3" y="12.5" class="cls-2"/><rect width="7" height="19.6" x="7.53" y="26.11" class="cls-2" transform="translate(-25.59 27.51) rotate(-60)"/><rect width="18.8" height="7" x="1.72" y="60.09" class="cls-2" transform="translate(-30.3 14.08) rotate(-30)"/><rect width="7" height="18.8" x="31.3" y="68.7" class="cls-2"/><rect width="7" height="19" x="55.4" y="54.76" class="cls-2" transform="translate(-26.2 83.14) rotate(-60)"/><rect width="19.7" height="7" x="49.9" y="32.76" class="cls-2" transform="translate(-10.13 34.73) rotate(-30)"/><rect width="6.9" height="6.9" x="67.2" y="46.8" class="cls-2"/><rect width="6.9" height="6.9" x="80.2" y="46.8" class="cls-2"/><rect width="6.9" height="6.9" x="92.3" y="46.8" class="cls-2"/></g></svg>