<svg xmlns="http://www.w3.org/2000/svg" xmlns:xlink="http://www.w3.org/1999/xlink" id="Layer_1" x="0" y="0" version="1.1" viewBox="0 0 135.9 109.5" xml:space="preserve" style="enable-background:new 0 0 135.9 109.5"><style type="text/css">.st0{opacity:.6}.st1{fill:#fff}</style><title>Asset 5</title><g id="Layer_2_1_" class="st0"><g id="Layer_1-2"><g><polygon points="74.6 86.4 61.3 86.4 54.6 98 61.3 109.5 74.6 109.5 81.3 98" class="st1"/></g><g><polygon points="39.1 85.6 32.2 78.4 52.3 59.3 83.8 59.3 103.7 78.4 96.8 85.6 79.8 69.3 56.3 69.3" class="st1"/></g><g><polygon points="7 45.2 0 38 39 0 97.4 0 135.9 38 128.9 45.1 93.3 10 43.1 10" class="st1"/></g><g><polygon points="110.6 63.1 84.8 39.4 51.1 39.4 25.3 63.1 18.5 55.7 47.2 29.4 88.7 29.4 117.4 55.7" class="st1"/></g></g></g></svg>