<svg xmlns="http://www.w3.org/2000/svg" xmlns:xlink="http://www.w3.org/1999/xlink" id="Layer_1" x="0" y="0" version="1.1" viewBox="0 0 512 512" xml:space="preserve" style="enable-background:new 0 0 512 512"><style type="text/css">.st0{fill:#5b616b}</style><path d="M5.1,374.5l25.6,25.6c3.4,3.4,7.4,5.1,11.8,5.1c4.4,0,8.4-1.7,11.8-5.1L256,198.5l201.6,201.6	c3.4,3.4,7.4,5.1,11.8,5.1c4.4,0,8.4-1.7,11.8-5.1l25.6-25.7c3.4-3.4,5.1-7.4,5.1-11.8c0-4.4-1.7-8.4-5.1-11.8L267.8,111.8	c-3.4-3.4-7.4-5.1-11.8-5.1s-8.4,1.7-11.8,5.1L5.1,350.9c-3.4,3.4-5.1,7.4-5.1,11.8C0,367.2,1.7,371.1,5.1,374.5L5.1,374.5z" class="st0"/></svg>