<svg xmlns="http://www.w3.org/2000/svg" xmlns:xlink="http://www.w3.org/1999/xlink" id="Layer_1" x="0" y="0" version="1.1" viewBox="0 0 17.1 20" xml:space="preserve" style="enable-background:new 0 0 17.1 20"><style type="text/css">.st0{fill:#231f20}</style><title>file-document</title><path d="M14.6,7.2v9c0,0.4-0.3,0.8-0.7,0.8c0,0,0,0,0,0H3.3c-0.4,0-0.7-0.3-0.7-0.8c0,0,0,0,0,0V3.7	C2.6,3.3,2.9,3,3.3,3c0,0,0,0,0,0h7c0.5,0,0.9,0.2,1.3,0.5L14,6C14.4,6.3,14.5,6.8,14.6,7.2z M13.6,8h-3.3C9.9,8,9.6,7.7,9.6,7.2V4	h-6v12h10V8z M10.6,7h2.9c0-0.1-0.1-0.2-0.2-0.3l-2.4-2.4c-0.1-0.1-0.2-0.1-0.3-0.2V7z" class="st0"/></svg>